# xmcd CD database file
# Copyright (C) 1993-1998 Ti Kan
# 
# Track frame offsets:
#     150
#     30062
#     41865
#     60210
#     85307
#     108030
#     118920
#     135302
#     153515
#     181585
# 
# Disc length: 2577 seconds
# 
# Revision: 1
# Processed by: cddbd v1.4b41PL1 Copyright (c) Steve Scherf et al.
# Submitted via: DiscPlay 4.0.4
# 
DISCID=6c0a0f0a
DTITLE=Smoky Greenwell - Smokin'
DYEAR=1900
DGENRE=
TTITLE0=Goin' Uptown
TTITLE1=Mr. P.C.
TTITLE2=Mercy, Mercy, Mercy
TTITLE3=So Long Storyville
TTITLE4=Back at the Chicken Shack
TTITLE5=C - Jam Blues
TTITLE6=The Real Deal
TTITLE7=Preservation Harp
TTITLE8=Busted
TTITLE9=Smokin'
EXTD=
EXTT0=
EXTT1=
EXTT2=
EXTT3=
EXTT4=
EXTT5=
EXTT6=
EXTT7=
EXTT8=
EXTT9=
PLAYORDER=
